<svg width="24" height="24" viewBox="0 0 24 24" fill="none" xmlns="http://www.w3.org/2000/svg">
<path d="M8.82164 7.88923C8.68868 7.79428 8.63158 7.62315 8.68105 7.46746L9.16738 5.97027L7.89823 5.04687C7.76146 4.95192 7.70818 4.77713 7.75764 4.62128C7.81092 4.46542 7.95517 4.35902 8.11866 4.35902H9.69191L10.1782 2.86561C10.2275 2.70991 10.3758 2.60352 10.5393 2.60352C10.7026 2.60352 10.8508 2.70991 10.9001 2.86561L11.3865 4.35902H12.9597C13.123 4.35902 13.2675 4.46542 13.3207 4.62128C13.3702 4.77714 13.3131 4.95193 13.1801 5.04687L11.911 5.97027L12.3973 7.46746C12.4468 7.62332 12.3897 7.79429 12.2567 7.88923C12.1922 7.93869 12.1123 7.96525 12.0325 7.96525C11.9565 7.96525 11.8766 7.93869 11.8121 7.88923L10.5391 6.96582L9.2661 7.88923C9.13315 7.98815 8.95454 7.98815 8.82158 7.88923H8.82164Z" fill="currentColor"/>
<path d="M3.08 6.28956C2.94704 6.19462 2.88994 6.02349 2.94322 5.86398L3.42956 4.37057L2.15658 3.44717C2.02362 3.3484 1.96652 3.17743 2.0198 3.02158C2.06926 2.86572 2.21351 2.75932 2.38083 2.75932H3.95025L4.43658 1.26591C4.4897 1.1064 4.63411 1 4.7976 1C4.96476 1 5.10916 1.1064 5.16244 1.26608L5.64499 2.75948H7.21824C7.38157 2.75948 7.5298 2.86588 7.57926 3.02174C7.63238 3.1776 7.57544 3.34857 7.44248 3.44733L6.16951 4.37073L6.65584 5.86414C6.7053 6.02366 6.65202 6.19479 6.51906 6.28973C6.45068 6.33919 6.37084 6.36193 6.29482 6.36193C6.21498 6.36193 6.13896 6.33919 6.07057 6.28973L4.79759 5.36632L3.52844 6.28973C3.39532 6.38833 3.2129 6.38833 3.07993 6.28957L3.08 6.28956Z" fill="currentColor"/>
<path d="M8.60127 9.34101C8.65057 9.50052 8.59364 9.67165 8.46068 9.76659L7.19153 10.69L7.67408 12.1872C7.7272 12.3431 7.67026 12.514 7.5373 12.609C7.47273 12.6583 7.39289 12.685 7.31305 12.685C7.23703 12.685 7.15719 12.6584 7.09262 12.609L5.81964 11.6855L4.54666 12.609C4.41371 12.7077 4.2351 12.7077 4.10214 12.609C3.96919 12.514 3.91209 12.3429 3.96155 12.1872L4.44772 10.69L3.17474 9.76659C3.04179 9.67165 2.98851 9.50052 3.03797 9.34101C3.08743 9.18515 3.2355 9.07875 3.39899 9.07875H4.97224L5.45857 7.58534C5.50803 7.42948 5.6561 7.32324 5.8196 7.32324C5.98293 7.32324 6.13116 7.42964 6.18062 7.58534L6.66695 9.07875H8.23637C8.40353 9.07875 8.54793 9.18515 8.60121 9.34101H8.60127Z" fill="currentColor"/>
<path d="M21.4385 19.6243C21.4385 19.9929 21.2941 20.3387 21.0357 20.5972C20.7658 20.8669 20.4124 20.9998 20.0628 20.9998C19.7094 20.9998 19.356 20.8669 19.0899 20.597L10.2891 11.8002C10.0306 11.5418 9.88623 11.196 9.88623 10.8274C9.88623 10.4587 10.0306 10.1129 10.2891 9.85449C10.8287 9.31869 11.6988 9.31869 12.2346 9.85449L21.0355 18.6517C21.2939 18.9139 21.4383 19.2597 21.4383 19.6245L21.4385 19.6243Z" fill="currentColor"/>
</svg>
