<svg width="24" height="24" viewBox="0 0 24 24" fill="none" xmlns="http://www.w3.org/2000/svg">
<path d="M22.8574 20.8023L21.2598 17.286C22.2091 15.6435 22.7185 13.7697 22.7185 11.8496C22.7185 5.85804 17.8562 1 11.8593 1C5.86235 1 1 5.88118 1 11.8728C1 17.8644 5.86235 22.7224 11.8593 22.7224C13.781 22.7224 15.6334 22.2135 17.3005 21.265L20.7967 22.8612C21.0051 22.9537 21.2367 23 21.445 23C21.8387 23 22.2323 22.8381 22.5333 22.5373C22.9964 22.0747 23.1353 21.4038 22.8574 20.8023ZM17.6015 19.4143C17.4857 19.368 17.3468 19.3218 17.231 19.3218C17.0689 19.3218 16.8837 19.368 16.7448 19.4606C15.2861 20.3859 13.5958 20.8948 11.8593 20.8948C6.88113 20.8948 2.80602 16.8465 2.80602 11.8496C2.80602 6.85279 6.85798 2.80442 11.8593 2.80442C16.8605 2.80442 20.9125 6.85279 20.9125 11.8496C20.9125 13.5846 20.4263 15.2734 19.4769 16.7308C19.3149 16.9853 19.2917 17.3091 19.4075 17.5868L20.9125 20.8948L17.6015 19.4143Z" fill="currentColor"/>
</svg>
